<svg width="24" height="24" viewBox="0 0 24 24" fill="none" xmlns="http://www.w3.org/2000/svg">
<path d="M8.46991 8.46991C8.61054 8.32946 8.80116 8.25057 8.99991 8.25057C9.19866 8.25057 9.38928 8.32946 9.52991 8.46991L11.9999 10.9399L14.4699 8.46991C14.5386 8.39622 14.6214 8.33712 14.7134 8.29613C14.8054 8.25514 14.9047 8.23309 15.0054 8.23132C15.1061 8.22954 15.2061 8.24807 15.2995 8.28579C15.3929 8.32351 15.4777 8.37965 15.5489 8.45087C15.6202 8.52209 15.6763 8.60692 15.714 8.70031C15.7518 8.7937 15.7703 8.89373 15.7685 8.99443C15.7667 9.09513 15.7447 9.19445 15.7037 9.28645C15.6627 9.37845 15.6036 9.46125 15.5299 9.52991L13.0599 11.9999L15.5299 14.4699C15.6624 14.6121 15.7345 14.8001 15.7311 14.9944C15.7277 15.1887 15.6489 15.3741 15.5115 15.5115C15.3741 15.6489 15.1887 15.7277 14.9944 15.7311C14.8001 15.7345 14.6121 15.6624 14.4699 15.5299L11.9999 13.0599L9.52991 15.5299C9.46125 15.6036 9.37845 15.6627 9.28645 15.7037C9.19445 15.7447 9.09513 15.7667 8.99443 15.7685C8.89373 15.7703 8.7937 15.7518 8.70031 15.714C8.60692 15.6763 8.52209 15.6202 8.45087 15.5489C8.37965 15.4777 8.32351 15.3929 8.28579 15.2995C8.24807 15.2061 8.22954 15.1061 8.23132 15.0054C8.23309 14.9047 8.25514 14.8054 8.29613 14.7134C8.33712 14.6214 8.39622 14.5386 8.46991 14.4699L10.9399 11.9999L8.46991 9.52991C8.32946 9.38928 8.25057 9.19866 8.25057 8.99991C8.25057 8.80116 8.32946 8.61054 8.46991 8.46991Z" fill="black" fill-opacity="0.7"/>
<path fill-rule="evenodd" clip-rule="evenodd" d="M7.31709 3.76904C10.4296 3.42399 13.5706 3.42399 16.6831 3.76904C18.5101 3.97304 19.9851 5.41204 20.1991 7.24904C20.5691 10.406 20.5691 13.595 20.1991 16.752C19.9841 18.589 18.5091 20.027 16.6831 20.232C13.5706 20.5771 10.4296 20.5771 7.31709 20.232C5.49009 20.027 4.01509 18.589 3.80109 16.752C3.43186 13.5951 3.43186 10.4059 3.80109 7.24904C4.01509 5.41204 5.49109 3.97304 7.31709 3.76904ZM16.5171 5.25904C13.5149 4.92627 10.4852 4.92627 7.48309 5.25904C6.92733 5.32069 6.40859 5.56791 6.01066 5.96075C5.61274 6.35359 5.35888 6.86912 5.29009 7.42404C4.93443 10.465 4.93443 13.5371 5.29009 16.578C5.35909 17.1328 5.61304 17.6481 6.01095 18.0407C6.40885 18.4333 6.92748 18.6804 7.48309 18.742C10.4601 19.074 13.5401 19.074 16.5171 18.742C17.0725 18.6802 17.5909 18.433 17.9886 18.0404C18.3863 17.6478 18.6401 17.1326 18.7091 16.578C19.0647 13.5371 19.0647 10.465 18.7091 7.42404C18.6399 6.86963 18.386 6.35468 17.9883 5.96226C17.5906 5.56983 17.0724 5.32281 16.5171 5.26104V5.25904Z" fill="black" fill-opacity="0.7"/>
</svg>
