<svg width="86" height="80" viewBox="0 0 86 80" fill="none" xmlns="http://www.w3.org/2000/svg">
<circle cx="10.5" cy="32" r="9" fill="#36AAD9"/>
<circle cx="6" cy="19.5" r="5.5" fill="#36AAD9"/>
<circle cx="2" cy="2" r="2" transform="matrix(1 0 0 -1 9.5 4)" fill="#36AAD9"/>
<circle cx="71" cy="59.5" r="7.5" fill="#36AAD9"/>
<circle cx="18.5" cy="75" r="5" fill="#36AAD9"/>
<circle cx="83" cy="57.5" r="2.5" fill="#36AAD9"/>
<circle cx="73" cy="11.5" r="2.5" fill="#36AAD9"/>
<g clip-path="url(#clip0_5869_77841)">
<rect x="6.5" y="4" width="67" height="67" rx="33.5" fill="#36AAD9"/>
<path d="M70.294 23.1711C67.5591 17.374 63.2276 12.506 57.7708 9.09061C50.181 4.3535 41.204 2.84862 32.4888 4.86385C23.7604 6.866 16.3538 12.1527 11.6036 19.7426C6.8665 27.3324 5.36162 36.3094 7.36376 45.0377C9.36591 53.766 14.6657 61.1726 22.2425 65.9097C27.5815 69.2467 33.7058 71.0133 39.9739 71.0133H40.3796C46.6216 70.9347 52.6935 69.1289 57.954 65.805C59.4851 64.8367 59.93 62.8215 58.9616 61.2904C57.9933 59.7593 55.978 59.3144 54.447 60.2828C50.2202 62.9654 45.3261 64.4179 40.3011 64.4834C35.1452 64.5488 30.1071 63.1224 25.7102 60.3875C13.1216 52.4836 9.27431 35.8121 17.152 23.2103C20.9731 17.0992 26.9403 12.8463 33.9544 11.2367C40.9685 9.61404 48.1919 10.831 54.303 14.6521C58.6999 17.4002 62.1808 21.3129 64.3792 25.9715C66.5253 30.5123 67.3628 35.5504 66.8001 40.523C66.6038 42.3158 67.8862 43.9385 69.6921 44.1347C71.4849 44.331 73.1075 43.0486 73.3038 41.2428C73.9974 35.0662 72.9636 28.8111 70.294 23.1711Z" fill="black"/>
<path d="M45.5747 38.7044C49.0686 36.6368 51.1101 32.8419 50.9269 28.7853C50.796 26.0765 49.6706 23.5116 47.7339 21.5749C45.7972 19.6382 43.2454 18.5128 40.5235 18.382C37.5138 18.238 34.6479 19.3111 32.4626 21.3917C30.3165 23.4462 29.0864 26.3251 29.0864 29.2956C29.0864 31.1015 30.5521 32.5671 32.3579 32.5671C34.1638 32.5671 35.6294 31.1015 35.6294 29.2956C35.6294 28.0917 36.1136 26.9663 36.9903 26.1288C37.8671 25.2913 39.0187 24.8726 40.2226 24.9249C42.4603 25.0296 44.2792 26.8616 44.3839 29.0863C44.4624 30.7089 43.638 32.24 42.2378 33.0775C38.8485 35.0796 36.7417 38.7306 36.7417 42.604C36.7417 44.4099 38.2073 45.8755 40.0132 45.8755C41.819 45.8755 43.2847 44.4099 43.2847 42.604C43.2847 41.0075 44.1353 39.555 45.5747 38.7044Z" fill="black"/>
<path d="M40 56.6318C41.8068 56.6318 43.2715 55.1671 43.2715 53.3604C43.2715 51.5536 41.8068 50.0889 40 50.0889C38.1932 50.0889 36.7285 51.5536 36.7285 53.3604C36.7285 55.1671 38.1932 56.6318 40 56.6318Z" fill="black"/>
</g>
<defs>
<clipPath id="clip0_5869_77841">
<rect x="6.5" y="4" width="67" height="67" rx="33.5" fill="white"/>
</clipPath>
</defs>
</svg>
